<svg id="visual" viewBox="0 0 2000 1000" width="2000" height="1000" xmlns="http://www.w3.org/2000/svg" xmlns:xlink="http://www.w3.org/1999/xlink" version="1.1"><path d="M1039 1000L1132.3 916.7C1225.7 833.3 1412.3 666.7 1285.7 500C1159 333.3 719 166.7 499 83.3L279 0L2000 0L2000 83.3C2000 166.7 2000 333.3 2000 500C2000 666.7 2000 833.3 2000 916.7L2000 1000Z" fill="#0066ff"></path><path d="M199 1000L412.3 916.7C625.7 833.3 1052.3 666.7 1049 500C1045.7 333.3 612.3 166.7 395.7 83.3L179 0L280 0L500 83.3C720 166.7 1160 333.3 1286.7 500C1413.3 666.7 1226.7 833.3 1133.3 916.7L1040 1000Z" fill="#acafff"></path><path d="M0 1000L0 916.7C0 833.3 0 666.7 0 500C0 333.3 0 166.7 0 83.3L0 0L180 0L396.7 83.3C613.3 166.7 1046.7 333.3 1050 500C1053.3 666.7 626.7 833.3 413.3 916.7L200 1000Z" fill="#ffffff"></path></svg>